<svg xmlns="http://www.w3.org/2000/svg" viewBox="0 0 640 640"><title>Icons_typo3_01</title><rect x="-1" width="641" height="642" style="fill:#022dc7"/><path d="M465.45,208.89v254H162.53v-254H465.45m0-20H162.53a20,20,0,0,0-20,20v254a20,20,0,0,0,20,20H465.45a20,20,0,0,0,20-20v-254a20,20,0,0,0-20-20Z" style="fill:#fff"/><rect x="149.32" y="195" width="330.02" height="42.78" rx="3" ry="3" style="fill:#fff"/><line x1="261.71" y1="284.74" x2="437" y2="284.74" style="fill:none;stroke:#fff;stroke-linecap:round;stroke-linejoin:round;stroke-width:20px"/><line x1="191.52" y1="284.74" x2="228.81" y2="284.74" style="fill:none;stroke:#fff;stroke-linecap:round;stroke-linejoin:round;stroke-width:20px"/><line x1="261.71" y1="356.58" x2="437" y2="356.58" style="fill:none;stroke:#fff;stroke-linecap:round;stroke-linejoin:round;stroke-width:20px"/><line x1="191.52" y1="356.61" x2="228.81" y2="356.61" style="fill:none;stroke:#fff;stroke-linecap:round;stroke-linejoin:round;stroke-width:20px"/><line x1="261.71" y1="428.44" x2="437" y2="428.44" style="fill:none;stroke:#fff;stroke-linecap:round;stroke-linejoin:round;stroke-width:20px"/><line x1="191.52" y1="428.44" x2="228.81" y2="428.44" style="fill:none;stroke:#fff;stroke-linecap:round;stroke-linejoin:round;stroke-width:20px"/><circle cx="421.75" cy="421.51" r="81.25" style="fill:#022dc7;stroke:#fff;stroke-miterlimit:10;stroke-width:20px"/><line x1="367.27" y1="424.56" x2="460.57" y2="424.56" style="fill:none;stroke:#fff;stroke-linecap:round;stroke-linejoin:round;stroke-width:15px"/><polygon points="410.87 485.9 400.64 474.92 454.82 424.57 400.64 374.21 410.87 363.22 476.84 424.57 410.87 485.9" style="fill:#fff"/><line x1="215" y1="146" x2="215" y2="199" style="fill:#fff;stroke:#fff;stroke-linecap:round;stroke-linejoin:round;stroke-width:20px"/><line x1="413" y1="146" x2="413" y2="199" style="fill:#fff;stroke:#fff;stroke-linecap:round;stroke-linejoin:round;stroke-width:20px"/></svg>