<svg xmlns="http://www.w3.org/2000/svg" viewBox="0 0 640 640"><title>Icons_typo3_01</title><rect x="-8.97" y="-11" width="657.94" height="660" style="fill:#022dc7"/><path d="M487.87,213.07H382.33a12,12,0,0,0-12,12V336.29a12,12,0,0,0,12,12s20.09,3.45,20.09,5.39V459.23a12,12,0,0,0,12,12h42a12,12,0,0,0,12-12V353.68c0-1.94,19.49-5.39,19.49-5.39a12,12,0,0,0,12-12V225.06A12,12,0,0,0,487.87,213.07Z" style="fill:#022dc7;stroke:#fff;stroke-miterlimit:10;stroke-width:20px"/><rect x="407.88" y="101.92" width="54.45" height="62.62" rx="20" ry="20" transform="translate(568.33 -301.88) rotate(90)" style="fill:#022dc7;stroke:#fff;stroke-miterlimit:10;stroke-width:20px"/><path d="M260.93,209.07H155.39a12,12,0,0,0-12,12V332.29a12,12,0,0,0,12,12s20.09,3.45,20.09,5.39V455.23a12,12,0,0,0,12,12h42a12,12,0,0,0,12-12V349.68c0-1.94,19.49-5.39,19.49-5.39a12,12,0,0,0,12-12V221.06A12,12,0,0,0,260.93,209.07Z" style="fill:#022dc7;stroke:#fff;stroke-miterlimit:10;stroke-width:20px"/><rect x="180.94" y="101.92" width="54.45" height="62.62" rx="20" ry="20" transform="translate(341.39 -74.94) rotate(90)" style="fill:#022dc7;stroke:#fff;stroke-miterlimit:10;stroke-width:20px"/><path d="M374.54,243.85H269a12,12,0,0,0-12,12V367.07a12,12,0,0,0,12,12s20.09,3.45,20.09,5.39V490a12,12,0,0,0,12,12h42a12,12,0,0,0,12-12V384.46c0-1.94,19.49-5.39,19.49-5.39a12,12,0,0,0,12-12V255.85A12,12,0,0,0,374.54,243.85Z" style="fill:#022dc7;stroke:#fff;stroke-miterlimit:10;stroke-width:20px"/><rect x="294.54" y="137.7" width="54.45" height="62.62" rx="20" ry="20" transform="translate(490.77 -152.76) rotate(90)" style="fill:#022dc7;stroke:#fff;stroke-miterlimit:10;stroke-width:20px"/></svg>